<svg width="162" height="167" viewBox="0 0 162 167" fill="none" xmlns="http://www.w3.org/2000/svg">
<path fill-rule="evenodd" clip-rule="evenodd" d="M70.5229 5.39581C72.3049 2.30932 71.2474 -1.63737 68.1609 -3.41935C65.0744 -5.20134 61.1277 -4.14383 59.3457 -1.05734C57.5637 2.02915 58.6212 5.97584 61.7077 7.75782C64.7942 9.53981 68.7409 8.4823 70.5229 5.39581Z" stroke="white" stroke-width="3" stroke-linecap="round" stroke-linejoin="round"/>
<path fill-rule="evenodd" clip-rule="evenodd" d="M139.964 39.9544C144.68 31.7849 141.881 21.3385 133.712 16.6218C125.542 11.9052 115.096 14.7043 110.379 22.8738C105.662 31.0433 108.462 41.4896 116.631 46.2063C124.801 50.923 135.247 48.1239 139.964 39.9544Z" stroke="white" stroke-width="3" stroke-linecap="round" stroke-linejoin="round"/>
<path fill-rule="evenodd" clip-rule="evenodd" d="M135.776 126.561C137.834 122.996 136.613 118.437 133.047 116.379C129.482 114.32 124.923 115.542 122.865 119.107C120.806 122.672 122.028 127.231 125.593 129.29C129.158 131.348 133.717 130.126 135.776 126.561Z" stroke="white" stroke-width="3" stroke-linecap="round" stroke-linejoin="round"/>
<path fill-rule="evenodd" clip-rule="evenodd" d="M110.674 145.933C114.779 138.823 112.343 129.731 105.233 125.626C98.1227 121.521 89.031 123.957 84.926 131.067C80.821 138.178 83.2571 147.269 90.3672 151.374C97.4773 155.479 106.569 153.043 110.674 145.933Z" stroke="white" stroke-width="3" stroke-linecap="round" stroke-linejoin="round"/>
<path fill-rule="evenodd" clip-rule="evenodd" d="M24.9758 105.627C27.4929 101.268 25.9991 95.6928 21.6393 93.1757C17.2795 90.6586 11.7047 92.1523 9.18755 96.5121C6.67042 100.872 8.1642 106.447 12.524 108.964C16.8838 111.481 22.4586 109.987 24.9758 105.627Z" stroke="white" stroke-width="3" stroke-linecap="round" stroke-linejoin="round"/>
<path d="M111.198 17.7889C108.782 17.0332 106.097 17.2537 103.86 18.4457C102.136 19.3441 100.888 20.7387 100.427 22.2186C99.8454 24.1206 100.361 25.6973 100.802 27.1073C101.234 28.4882 101.615 29.6179 101.061 31.0445C91.4665 28.7511 81.3839 29.8157 72.4255 34.087C71.0608 32.6597 71.069 31.4103 71.0596 29.9784C71.067 28.9007 71.0666 27.7938 70.4242 26.7343C69.6796 25.4683 68.3388 24.5958 66.6496 24.2845C64.055 23.7948 61.1216 24.6588 58.5979 26.6446C55.9947 28.683 54.2072 31.4382 53.9219 33.8065C53.7654 35.1425 54.085 36.3353 54.8205 37.2763C55.9475 38.6894 57.577 39.3597 59.1222 40.0058C60.1005 40.3985 61.0128 40.7777 61.7342 41.3172C58.5617 44.2564 55.8389 47.652 53.6452 51.4515C51.5474 55.085 49.998 58.9614 49.0396 63.0068C46.7971 64.1221 45.9076 63.3626 44.6812 62.3349C43.8548 61.6364 42.9284 60.8557 41.5974 60.7758C38.2038 60.5625 34.3855 63.7684 33.853 69.4614C33.6031 72.1944 34.2784 74.773 35.7395 76.5019C36.7537 77.7268 38.1214 78.4673 39.5738 78.5927C41.4724 78.7543 43.0052 78.0162 44.3713 77.3539C45.9438 76.5896 46.9125 76.1897 48.0305 76.6385C48.5776 83.1024 50.5942 89.4065 53.8952 94.9766C53.8448 95.0213 53.7945 95.066 53.7441 95.1106C52.4786 96.3228 51.6826 98.2979 51.6152 100.374C51.56 102.088 51.9502 104.65 54.1872 107.122C55.9065 109 58.1525 110.05 60.3691 110.002C62.1181 109.954 63.6984 109.219 64.7368 107.974C64.8405 107.837 64.9441 107.7 65.0584 107.545C66.3643 108.52 67.7972 109.446 69.4388 110.394C74.972 113.588 80.9655 115.475 87.2687 116.015C87.1704 117.336 86.5023 118.45 85.7917 119.638C85.0705 120.845 84.3279 122.089 84.2977 123.547C84.2638 125.224 85.138 127.032 86.6219 128.381C88.5399 130.128 91.1727 130.934 94.0166 130.609C97.0321 130.284 99.897 128.815 101.496 126.812C102.466 125.601 102.889 124.271 102.747 122.984C102.508 120.928 101.257 119.345 100.157 117.972C99.3502 116.941 98.775 116.191 98.6141 115.532C111.172 113.29 121.989 105.714 128.389 94.6294C129.124 93.3567 129.803 92.0521 130.398 90.7234C130.517 90.8164 130.617 90.8987 130.735 90.9917C131.638 91.6852 132.504 92.3574 133.583 92.6607C134.831 93.0123 136.193 92.741 137.523 91.8857C138.715 91.0985 139.777 89.9409 140.586 88.5392C141.406 87.119 142.003 85.4468 142.251 83.6965C142.616 81.104 142.044 78.5602 140.639 76.6916C139.596 75.3027 138.171 74.4061 136.648 74.1907C135.711 74.0676 134.854 74.188 134.058 74.4169C134.278 67.0925 132.644 59.8286 129.305 53.3021C125.583 45.9893 119.867 39.9593 112.769 35.812C112.995 33.1634 114.314 31.6873 115.583 30.2559C116.3 29.4402 116.996 28.6614 117.433 27.7335C118.082 26.3125 118.044 24.5451 117.323 22.8987C116.311 20.5194 114.074 18.6867 111.198 17.7889Z" fill="#FF6496"/>
<path d="M78.8068 62.0931C76.1156 61.9411 73.8761 60.6235 73.1353 58.499C72.0189 55.3214 74.6219 51.5369 78.9398 50.0213C83.2578 48.5058 87.6713 49.8489 88.7799 52.9974C89.4973 55.0347 88.6707 57.3609 86.8374 59.1306" stroke="white" stroke-width="3" stroke-linecap="round" stroke-linejoin="round"/>
<path d="M90.2238 82.6541C92.2364 79.1682 96.6983 77.957 100.203 79.9803C103.707 82.0035 104.9 86.4548 102.877 89.9592C100.864 93.4451 96.402 94.6563 92.8976 92.633C91.6803 91.9302 90.7391 90.9195 90.113 89.7465" stroke="white" stroke-width="3" stroke-linecap="round" stroke-linejoin="round"/>
<path d="M103.322 58.5645C106.519 56.476 107.404 53.0273 109.958 52.4364C112.968 51.7392 115.806 53.2549 117.124 57.3606C118.443 61.4664 117.057 65.3144 114.199 66.5168C110.753 67.9702 108.213 65.2988 108.213 65.2988" stroke="white" stroke-width="3" stroke-linecap="round" stroke-linejoin="round"/>
<path d="M64.4195 43.3096C63.5312 38.7144 58.084 39.3321 55.8038 36.4663C54.0385 34.2421 56.0137 30.2673 59.3776 27.6353C63.3938 24.47 67.8956 24.9787 69.3167 27.3731C70.6591 29.6483 68.0137 32.8672 73.2127 36.3853" stroke="white" stroke-width="3" stroke-linecap="round" stroke-linejoin="round"/>
<path d="M70.5526 98.0277C64.9759 99.8494 66.1821 104.235 63.773 107.172C61.9723 109.354 58.0358 109.442 55.1625 106.283C51.7346 102.509 52.7564 97.8851 54.6507 96.0523C56.545 94.2195 60.3346 96.2599 61.6285 90.4408" stroke="white" stroke-width="3" stroke-linecap="round" stroke-linejoin="round"/>
<path d="M126.094 77.2206C130.166 79.3256 132.857 74.8785 136.481 75.3727C139.282 75.7603 141.605 79.1916 140.979 83.4287C140.245 88.4895 136.621 92.1267 133.927 91.383C131.384 90.6769 129.768 86.9159 123.925 87.4526" stroke="white" stroke-width="3" stroke-linecap="round" stroke-linejoin="round"/>
</svg>
