<svg width="61" height="57" viewBox="0 0 61 57" fill="none" xmlns="http://www.w3.org/2000/svg">
<path fill-rule="evenodd" clip-rule="evenodd" d="M51.0322 6.44042C52.5346 6.44042 53.7524 5.22254 53.7524 3.72021C53.7524 2.21788 52.5346 1 51.0322 1C49.5299 1 48.312 2.21788 48.312 3.72021C48.312 5.22254 49.5299 6.44042 51.0322 6.44042Z" stroke="white" stroke-width="1.07731" stroke-linecap="round" stroke-linejoin="round"/>
<path fill-rule="evenodd" clip-rule="evenodd" d="M53.0521 39.0739C57.0285 39.0739 60.2521 35.8503 60.2521 31.8739C60.2521 27.8974 57.0285 24.6738 53.0521 24.6738C49.0756 24.6738 45.8521 27.8974 45.8521 31.8739C45.8521 35.8503 49.0756 39.0739 53.0521 39.0739Z" stroke="white" stroke-width="1.07731" stroke-linecap="round" stroke-linejoin="round"/>
<path fill-rule="evenodd" clip-rule="evenodd" d="M20.5533 55.7999C22.2887 55.7999 23.6954 54.3931 23.6954 52.6578C23.6954 50.9224 22.2887 49.5156 20.5533 49.5156C18.8179 49.5156 17.4111 50.9224 17.4111 52.6578C17.4111 54.3931 18.8179 55.7999 20.5533 55.7999Z" stroke="white" stroke-width="1.07731" stroke-linecap="round" stroke-linejoin="round"/>
<path fill-rule="evenodd" clip-rule="evenodd" d="M8.19214 50.7183C11.653 50.7183 14.4585 47.9127 14.4585 44.4519C14.4585 40.9911 11.653 38.1855 8.19214 38.1855C4.73133 38.1855 1.92578 40.9911 1.92578 44.4519C1.92578 47.9127 4.73133 50.7183 8.19214 50.7183Z" stroke="white" stroke-width="1.07731" stroke-linecap="round" stroke-linejoin="round"/>
<path fill-rule="evenodd" clip-rule="evenodd" d="M4.84241 10.9387C6.96451 10.9387 8.68482 9.21842 8.68482 7.09632C8.68482 4.97421 6.96451 3.25391 4.84241 3.25391C2.72031 3.25391 1 4.97421 1 7.09632C1 9.21842 2.72031 10.9387 4.84241 10.9387Z" stroke="white" stroke-width="1.07731" stroke-linecap="round" stroke-linejoin="round"/>
<path d="M55.0809 23.9007C54.8474 22.8593 54.201 21.9256 53.2943 21.36C52.603 20.9201 51.831 20.7585 51.1936 20.9022C50.3766 21.0907 49.9098 21.6114 49.4878 22.0693C49.0748 22.5181 48.7427 22.8952 48.1053 22.9939C46.9202 19.0079 44.4065 15.5515 40.9591 13.1814C41.1925 12.3824 41.6504 12.1221 42.1711 11.8168C42.5661 11.5924 42.9701 11.359 43.2215 10.9011C43.5267 10.3625 43.5626 9.68915 43.3202 9.00686C42.9521 7.95648 42.0185 7.0677 40.7616 6.56495C39.4688 6.04425 38.0863 5.97243 37.1616 6.36744C36.6409 6.59188 36.2728 6.95997 36.0843 7.4268C35.806 8.13603 35.9047 8.87219 35.9945 9.57244C36.0573 10.0123 36.1112 10.4253 36.0663 10.8024C34.3247 10.2637 32.5112 9.98541 30.6618 9.98541C28.8932 9.98541 27.1516 10.2368 25.4728 10.7395C24.5929 10.156 24.6827 9.6712 24.7994 9.00686C24.8802 8.55798 24.97 8.05523 24.7186 7.55249C24.0812 6.26869 22.1062 5.55048 19.9156 6.55597C18.8652 7.04076 18.0662 7.83079 17.743 8.72855C17.5096 9.35698 17.5276 10.0123 17.7879 10.569C18.1291 11.2961 18.7216 11.7001 19.2513 12.0592C19.8618 12.4722 20.2119 12.7415 20.2837 13.2443C18.0393 14.8064 16.163 16.8712 14.8253 19.2503C14.7984 19.2413 14.7715 19.2323 14.7445 19.2234C14.0353 19.0169 13.1465 19.1426 12.3744 19.5555C11.737 19.8967 10.8842 20.579 10.4532 21.9166C10.13 22.9401 10.2198 23.9815 10.7046 24.7805C11.0907 25.4089 11.6921 25.8309 12.3655 25.9476C12.4373 25.9566 12.5091 25.9655 12.5899 25.9745C12.5091 26.6568 12.4732 27.375 12.4732 28.174C12.4732 30.8673 13.0478 33.4528 14.1789 35.8678C13.6762 36.1102 13.1286 36.1012 12.545 36.0923C11.9525 36.0833 11.342 36.0743 10.8034 36.3706C10.1839 36.7117 9.7081 37.412 9.52855 38.2379C9.29513 39.3062 9.55548 40.4374 10.2737 41.407C11.0278 42.4394 12.168 43.1756 13.2363 43.3372C13.8827 43.4359 14.4572 43.3102 14.8972 42.987C15.5974 42.4663 15.9116 41.6763 16.1809 40.985C16.3874 40.4733 16.54 40.1052 16.7465 39.9077C20.2119 44.0195 25.2573 46.3716 30.6528 46.3716C31.2723 46.3716 31.8917 46.3447 32.5022 46.2818C32.4932 46.3447 32.4843 46.3985 32.4753 46.4614C32.4124 46.9372 32.3496 47.395 32.4663 47.8529C32.601 48.3826 32.987 48.8225 33.5795 49.1277C34.1182 49.397 34.7646 49.5407 35.4469 49.5407C36.1381 49.5407 36.8743 49.406 37.5656 49.1277C38.589 48.7147 39.397 47.9696 39.783 47.0629C40.0703 46.3895 40.0973 45.6803 39.8549 45.0788C39.7022 44.7107 39.4778 44.4235 39.2264 44.1811C41.9466 42.7177 44.2539 40.59 45.9327 37.9955C47.818 35.0957 48.8145 31.7381 48.8324 28.2728C49.8469 27.797 50.6639 27.9675 51.4539 28.1291C51.9028 28.2189 52.3337 28.3087 52.7646 28.2728C53.42 28.2099 54.0574 27.8239 54.5063 27.2134C55.1616 26.3426 55.3592 25.1396 55.0809 23.9007Z" fill="#FF7BA6"/>
<path d="M32.082 21.4138C31.5703 20.3993 31.5792 19.304 32.1987 18.5858C33.1234 17.5085 35.0536 17.6611 36.5169 18.918C37.9803 20.1749 38.4202 22.0691 37.5045 23.1375C36.9119 23.8288 35.8885 24.0173 34.8561 23.721" stroke="white" stroke-width="1.07731" stroke-linecap="round" stroke-linejoin="round"/>
<path d="M26.9812 29.916C28.6779 29.916 30.0605 31.2896 30.0605 32.9953C30.0605 34.7011 28.6869 36.0746 26.9812 36.0746C25.2844 36.0746 23.9019 34.7011 23.9019 32.9953C23.9019 32.4028 24.0724 31.8462 24.3687 31.3704" stroke="white" stroke-width="1.07731" stroke-linecap="round" stroke-linejoin="round"/>
<path d="M38.5333 29.6211C39.9697 30.3483 41.4151 29.9443 42.1692 30.7523C43.058 31.7039 43.1029 33.0595 41.8819 34.4062C40.661 35.7528 38.9642 36.058 37.9228 35.268C36.6659 34.3164 37.1058 32.8261 37.1058 32.8261" stroke="white" stroke-width="1.07731" stroke-linecap="round" stroke-linejoin="round"/>
<path d="M35.9062 12.2043C37.3965 10.9115 36.023 9.05317 36.5885 7.61676C37.0284 6.50353 38.8958 6.38683 40.5656 7.06014C42.5676 7.85915 43.3307 9.60978 42.7562 10.6332C42.2085 11.6028 40.4758 11.3155 40.2873 13.9549" stroke="white" stroke-width="1.07731" stroke-linecap="round" stroke-linejoin="round"/>
<path d="M17.2225 25.9758C15.382 24.324 14.0354 25.6885 12.4554 25.4282C11.2793 25.2307 10.4174 23.8122 10.9651 22.0975C11.6204 20.0506 13.5237 19.4491 14.592 19.7544C15.6604 20.0596 15.7142 21.8731 18.1112 21.119" stroke="white" stroke-width="1.07731" stroke-linecap="round" stroke-linejoin="round"/>
<path d="M36.5241 41.8652C36.6139 43.7954 38.8044 43.8403 39.3879 45.2677C39.8368 46.372 39.0737 47.9431 37.3949 48.6074C35.3929 49.4064 33.3011 48.8498 33.0049 47.7096C32.7266 46.6323 33.759 45.2498 32.3315 43.2298" stroke="white" stroke-width="1.07731" stroke-linecap="round" stroke-linejoin="round"/>
</svg>
