<svg width="200" height="128" viewBox="0 0 200 128" fill="none" xmlns="http://www.w3.org/2000/svg">
<path d="M159.183 53.8842C158.605 51.3064 157.005 48.9953 154.761 47.5953C153.05 46.5064 151.139 46.1064 149.561 46.4619C147.539 46.9286 146.383 48.2175 145.339 49.3508C144.316 50.4619 143.494 51.3953 141.916 51.6397C138.983 41.773 132.761 33.2174 124.227 27.3506C124.805 25.3728 125.939 24.7284 127.227 23.9728C128.205 23.4173 129.205 22.8395 129.827 21.7061C130.583 20.3728 130.672 18.7061 130.072 17.0172C129.161 14.4172 126.85 12.2172 123.739 10.9727C120.538 9.68383 117.116 9.50605 114.827 10.4838C113.538 11.0394 112.627 11.9505 112.161 13.1061C111.472 14.8616 111.716 16.6839 111.938 18.4172C112.094 19.5061 112.227 20.5284 112.116 21.4617C107.805 20.1284 103.316 19.4395 98.7383 19.4395C94.3605 19.4395 90.0493 20.0617 85.8937 21.3061C83.7159 19.8617 83.9382 18.6617 84.2271 17.0172C84.4271 15.9061 84.6493 14.6616 84.0271 13.4172C82.4493 10.2394 77.5603 8.46159 72.1381 10.9505C69.538 12.1505 67.5603 14.1061 66.7602 16.3283C66.1825 17.8839 66.2269 19.5061 66.8714 20.8839C67.7158 22.6839 69.1825 23.6839 70.4936 24.5728C72.0047 25.5951 72.8714 26.2617 73.0492 27.5062C67.4936 31.3729 62.8491 36.484 59.538 42.373C59.4713 42.3508 59.4046 42.3285 59.338 42.3063C57.5824 41.7952 55.3824 42.1063 53.4712 43.1285C51.8935 43.973 49.7823 45.6619 48.7157 48.973C47.9156 51.5064 48.1379 54.0842 49.3379 56.062C50.2934 57.6176 51.7823 58.662 53.449 58.9509C53.6268 58.9731 53.8046 58.9953 54.0046 59.0176C53.8046 60.7065 53.7157 62.4843 53.7157 64.4621C53.7157 71.1288 55.1379 77.5288 57.938 83.5067C56.6935 84.1067 55.3379 84.0844 53.8935 84.0622C52.4268 84.04 50.9157 84.0178 49.5823 84.7511C48.049 85.5956 46.8712 87.3289 46.4267 89.3734C45.849 92.0178 46.4934 94.8179 48.2712 97.2179C50.1379 99.7735 52.9601 101.596 55.6046 101.996C57.2046 102.24 58.6268 101.929 59.7157 101.129C61.4491 99.8401 62.2269 97.8846 62.8935 96.1734C63.4047 94.9068 63.7824 93.9956 64.2936 93.5067C72.8714 103.685 85.3604 109.507 98.7161 109.507C100.249 109.507 101.783 109.44 103.294 109.285C103.272 109.44 103.249 109.574 103.227 109.729C103.072 110.907 102.916 112.04 103.205 113.174C103.538 114.485 104.494 115.574 105.961 116.329C107.294 116.996 108.894 117.351 110.583 117.351C112.294 117.351 114.116 117.018 115.827 116.329C118.361 115.307 120.361 113.462 121.316 111.218C122.027 109.551 122.094 107.796 121.494 106.307C121.116 105.396 120.561 104.685 119.938 104.085C126.672 100.462 132.383 95.1957 136.539 88.7734C141.205 81.5955 143.672 73.2844 143.716 64.7065C146.228 63.5287 148.25 63.9509 150.205 64.3509C151.317 64.5732 152.383 64.7954 153.45 64.7065C155.072 64.5509 156.65 63.5954 157.761 62.0843C159.383 59.9287 159.872 56.9509 159.183 53.8842Z" fill="#4863F4"/>
<path fill-rule="evenodd" clip-rule="evenodd" d="M102.25 47.7282C100.983 45.217 101.005 42.5059 102.539 40.7281C104.827 38.0614 109.605 38.4392 113.227 41.5503C116.85 44.6615 117.939 49.3504 115.672 51.9949C114.205 53.706 111.672 54.1727 109.116 53.4393" fill="#4863F4"/>
<path d="M102.25 47.7282C100.983 45.217 101.005 42.5059 102.539 40.7281C104.827 38.0614 109.605 38.4392 113.227 41.5503C116.85 44.6615 117.939 49.3504 115.672 51.9949C114.205 53.706 111.672 54.1727 109.116 53.4393" stroke="#222C40" stroke-width="3" stroke-linecap="round" stroke-linejoin="round"/>
<path fill-rule="evenodd" clip-rule="evenodd" d="M89.6272 68.7734C93.8272 68.7734 97.2495 72.1735 97.2495 76.3957C97.2495 80.618 93.8494 84.018 89.6272 84.018C85.4271 84.018 82.0049 80.618 82.0049 76.3957C82.0049 74.929 82.4271 73.5513 83.1604 72.3735" fill="#4863F4"/>
<path d="M89.6272 68.7734C93.8272 68.7734 97.2495 72.1735 97.2495 76.3957C97.2495 80.618 93.8494 84.018 89.6272 84.018C85.4271 84.018 82.0049 80.618 82.0049 76.3957C82.0049 74.929 82.4271 73.5513 83.1604 72.3735" stroke="#222C40" stroke-width="3" stroke-linecap="round" stroke-linejoin="round"/>
<path fill-rule="evenodd" clip-rule="evenodd" d="M118.228 68.04C121.783 69.8401 125.361 68.84 127.228 70.8401C129.428 73.1956 129.539 76.5512 126.517 79.8846C123.494 83.2179 119.294 83.9735 116.717 82.0179C113.605 79.6624 114.694 75.9734 114.694 75.9734" fill="#4863F4"/>
<path d="M118.228 68.04C121.783 69.8401 125.361 68.84 127.228 70.8401C129.428 73.1956 129.539 76.5512 126.517 79.8846C123.494 83.2179 119.294 83.9735 116.717 82.0179C113.605 79.6624 114.694 75.9734 114.694 75.9734" stroke="#222C40" stroke-width="3" stroke-linecap="round" stroke-linejoin="round"/>
<path fill-rule="evenodd" clip-rule="evenodd" d="M111.716 24.9282C115.405 21.7282 112.005 17.1282 113.405 13.5726C114.494 10.817 119.116 10.5281 123.249 12.1948C128.205 14.1726 130.094 18.506 128.672 21.0393C127.316 23.4393 123.027 22.7282 122.56 29.2616" fill="#4863F4"/>
<path d="M111.716 24.9282C115.405 21.7282 112.005 17.1282 113.405 13.5726C114.494 10.817 119.116 10.5281 123.249 12.1948C128.205 14.1726 130.094 18.506 128.672 21.0393C127.316 23.4393 123.027 22.7282 122.56 29.2616" stroke="#222C40" stroke-width="3" stroke-linecap="round" stroke-linejoin="round"/>
<path fill-rule="evenodd" clip-rule="evenodd" d="M65.471 59.0176C60.9154 54.9287 57.5821 58.3065 53.6709 57.662C50.7598 57.1731 48.6264 53.662 49.982 49.4175C51.6042 44.3508 56.3154 42.8619 58.9599 43.6175C61.6043 44.373 61.7377 48.8619 67.671 46.9953" fill="#4863F4"/>
<path d="M65.471 59.0176C60.9154 54.9287 57.5821 58.3065 53.6709 57.662C50.7598 57.1731 48.6264 53.662 49.982 49.4175C51.6042 44.3508 56.3154 42.8619 58.9599 43.6175C61.6043 44.373 61.7377 48.8619 67.671 46.9953" stroke="#222C40" stroke-width="3" stroke-linecap="round" stroke-linejoin="round"/>
<path fill-rule="evenodd" clip-rule="evenodd" d="M113.249 98.3506C113.471 103.128 118.893 103.24 120.338 106.773C121.449 109.506 119.56 113.395 115.405 115.04C110.449 117.017 105.271 115.64 104.538 112.817C103.849 110.151 106.404 106.728 102.871 101.728" fill="#4863F4"/>
<path d="M113.249 98.3506C113.471 103.128 118.893 103.24 120.338 106.773C121.449 109.506 119.56 113.395 115.405 115.04C110.449 117.017 105.271 115.64 104.538 112.817C103.849 110.151 106.404 106.728 102.871 101.728" stroke="#222C40" stroke-width="3" stroke-linecap="round" stroke-linejoin="round"/>
<g clip-path="url(#clip0_510_13)">
<path d="M162.409 127.973L159.87 120.55C165.035 118.945 168.594 116.058 170.547 111.892C172.5 107.768 173.477 103.037 173.477 97.6986V84.222C173.477 79.8817 174.367 75.932 176.146 72.373C177.882 68.8574 180.66 66.0579 184.48 63.9745C188.256 61.8912 193.225 60.8495 199.389 60.8495V68.7922C194.484 68.7922 190.969 70.1811 188.842 72.9589C186.672 75.7367 185.587 79.4912 185.587 84.222V97.6986C185.587 102.256 184.892 106.509 183.503 110.46C182.071 114.453 179.684 117.946 176.342 120.941C172.956 123.98 168.312 126.323 162.409 127.973ZM159.87 7.65892L162.409 0.171875C168.312 1.8646 172.956 4.20837 176.342 7.20318C179.684 10.198 182.071 13.6919 183.503 17.685C184.892 21.6348 185.587 25.8882 185.587 30.4456V43.8572C185.587 47.0256 186.064 49.76 187.019 52.0604C187.974 54.3607 189.471 56.1402 191.511 57.3989C193.508 58.701 196.133 59.3521 199.389 59.3521V67.2949C193.225 67.2949 188.256 66.2532 184.48 64.1698C180.66 62.0865 177.882 59.2652 176.146 55.7062C174.367 52.1906 173.477 48.2409 173.477 43.8572V30.4456C173.477 26.8865 173.065 23.5878 172.24 20.5497C171.372 17.5114 169.961 14.8856 168.008 12.672C166.012 10.415 163.299 8.744 159.87 7.65892Z" fill="#4863F4"/>
</g>
<g clip-path="url(#clip1_510_13)">
<path d="M37.5908 0.0283466L40.1299 7.45064C34.9649 9.05598 31.4059 11.9431 29.4527 16.1094C27.4996 20.233 26.523 24.9637 26.523 30.3024L26.523 43.7789C26.523 48.1192 25.6332 52.069 23.8537 55.628C22.1176 59.1436 19.3398 61.9431 15.5203 64.0265C11.7442 66.1098 6.77458 67.1515 0.611333 67.1515L0.611334 59.2087C5.51591 59.2087 9.03149 57.8198 11.1583 55.042C13.3284 52.2642 14.4135 48.5098 14.4135 43.7789L14.4135 30.3024C14.4135 25.745 15.108 21.4916 16.4969 17.5414C17.9292 13.5485 20.3164 10.0551 23.6584 7.05952C27.0438 4.02127 31.688 1.67814 37.5908 0.0283466ZM40.1299 120.342L37.5908 127.829C31.6879 126.136 27.0438 123.793 23.6584 120.798C20.3164 117.803 17.9292 114.309 16.4969 110.316C15.108 106.366 14.4135 102.113 14.4135 97.5554L14.4135 84.1438C14.4135 80.9754 13.9361 78.241 12.9812 75.9406C12.0264 73.6402 10.5289 71.8608 8.489 70.6021C6.49245 69.2999 3.86656 68.6489 0.611333 68.6489L0.611334 60.7061C6.77459 60.7061 11.7442 61.7478 15.5203 63.8312C19.3398 65.9145 22.1176 68.7358 23.8537 72.2948C25.6332 75.8104 26.523 79.7601 26.523 84.1438L26.523 97.5554C26.523 101.114 26.9353 104.413 27.76 107.451C28.628 110.49 30.0387 113.115 31.9918 115.329C33.9883 117.586 36.701 119.257 40.1299 120.342Z" fill="#4863F4"/>
</g>
<defs>
<clipPath id="clip0_510_13">
<rect width="40.8892" height="128.001" fill="white" transform="translate(159.11)"/>
</clipPath>
<clipPath id="clip1_510_13">
<rect width="40.8892" height="128.001" fill="white" transform="translate(40.8896 128.001) rotate(-180)"/>
</clipPath>
</defs>
</svg>
