<svg width="133" height="39" viewBox="0 0 133 39" fill="none" xmlns="http://www.w3.org/2000/svg">
<path d="M39.723 16.7977C39.5771 16.1466 39.1729 15.5628 38.6059 15.2091C38.1737 14.9341 37.6909 14.833 37.2924 14.9228C36.7816 15.0407 36.4897 15.3663 36.2258 15.6526C35.9676 15.9333 35.7599 16.169 35.3614 16.2308C34.6204 13.7384 33.0487 11.5772 30.8931 10.0953C31.039 9.5957 31.3253 9.43291 31.6509 9.24206C31.8979 9.10172 32.1505 8.95577 32.3077 8.66949C32.4985 8.33268 32.521 7.91168 32.3694 7.48506C32.1393 6.82829 31.5555 6.27256 30.7696 5.95821C29.9613 5.63263 29.0968 5.58772 28.5186 5.83471C28.193 5.97505 27.9629 6.2052 27.845 6.49709C27.671 6.94055 27.7327 7.40085 27.7889 7.8387C27.8282 8.11376 27.8619 8.37198 27.8338 8.60774C26.7448 8.27093 25.6109 8.09692 24.4545 8.09692C23.3487 8.09692 22.2597 8.25409 21.21 8.56845C20.6598 8.20357 20.716 7.90045 20.7889 7.48506C20.8395 7.20438 20.8956 6.89003 20.7384 6.57568C20.3399 5.77296 19.1049 5.32389 17.7352 5.95259C17.0785 6.25572 16.5789 6.7497 16.3768 7.31104C16.2309 7.70398 16.2421 8.11376 16.4049 8.46179C16.6182 8.91648 16.9887 9.16908 17.3199 9.39362C17.7016 9.65184 17.9205 9.82024 17.9654 10.1346C16.562 11.1113 15.3888 12.4024 14.5524 13.89C14.5356 13.8844 14.5188 13.8787 14.5019 13.8731C14.0585 13.744 13.5027 13.8226 13.02 14.0808C12.6214 14.2941 12.0881 14.7208 11.8187 15.5572C11.6166 16.1971 11.6728 16.8482 11.9759 17.3478C12.2173 17.7408 12.5934 18.0046 13.0144 18.0776C13.0593 18.0832 13.1042 18.0888 13.1547 18.0944C13.1042 18.521 13.0817 18.9701 13.0817 19.4697C13.0817 21.1537 13.441 22.7704 14.1483 24.2804C13.8339 24.432 13.4915 24.4264 13.1266 24.4207C12.7561 24.4151 12.3744 24.4095 12.0376 24.5948C11.6503 24.8081 11.3528 25.2459 11.2405 25.7623C11.0946 26.4303 11.2574 27.1376 11.7064 27.7439C12.178 28.3894 12.8909 28.8497 13.5589 28.9508C13.963 29.0125 14.3223 28.9339 14.5973 28.7318C15.0352 28.4063 15.2317 27.9123 15.4001 27.4801C15.5292 27.1601 15.6246 26.9299 15.7537 26.8064C17.9205 29.3774 21.0752 30.8481 24.4489 30.8481C24.8362 30.8481 25.2235 30.8313 25.6053 30.792C25.5996 30.8313 25.594 30.8649 25.5884 30.9042C25.5491 31.2018 25.5098 31.488 25.5828 31.7743C25.667 32.1055 25.9084 32.3806 26.2789 32.5714C26.6157 32.7398 27.0198 32.8296 27.4465 32.8296C27.8787 32.8296 28.339 32.7454 28.7712 32.5714C29.4112 32.3132 29.9164 31.8473 30.1577 31.2803C30.3374 30.8593 30.3542 30.4159 30.2027 30.0398C30.1072 29.8096 29.9669 29.63 29.8097 29.4784C31.5106 28.5634 32.9532 27.2331 34.0029 25.6108C35.1818 23.7977 35.8048 21.6982 35.8161 19.5315C36.4504 19.2339 36.9612 19.3406 37.4552 19.4416C37.7359 19.4978 38.0053 19.5539 38.2747 19.5315C38.6845 19.4922 39.0831 19.2508 39.3637 18.8691C39.7735 18.3246 39.897 17.5724 39.723 16.7977Z" fill="#4863F4"/>
<path d="M25.3399 15.243C25.02 14.6087 25.0256 13.9238 25.4129 13.4747C25.9911 12.8011 27.198 12.8966 28.1129 13.6824C29.0279 14.4683 29.303 15.6527 28.7304 16.3207C28.3599 16.753 27.72 16.8709 27.0745 16.6856" stroke="#383F58" stroke-width="0.67361" stroke-linecap="round" stroke-linejoin="round"/>
<path d="M22.1529 20.5605C23.2139 20.5605 24.0783 21.4194 24.0783 22.4859C24.0783 23.5525 23.2195 24.4114 22.1529 24.4114C21.092 24.4114 20.2275 23.5525 20.2275 22.4859C20.2275 22.1155 20.3342 21.7674 20.5194 21.4699" stroke="#383F58" stroke-width="0.67361" stroke-linecap="round" stroke-linejoin="round"/>
<path d="M29.3772 20.373C30.2753 20.8277 31.1791 20.5751 31.6506 21.0803C32.2063 21.6754 32.2344 22.523 31.471 23.365C30.7075 24.207 29.6466 24.3979 28.9954 23.9039C28.2096 23.3089 28.4846 22.377 28.4846 22.377" stroke="#383F58" stroke-width="0.67361" stroke-linecap="round" stroke-linejoin="round"/>
<path d="M27.7314 9.48417C28.6633 8.67584 27.8044 7.51386 28.1581 6.61572C28.4331 5.91965 29.6007 5.84668 30.6448 6.26768C31.8966 6.76728 32.3737 7.86189 32.0145 8.50182C31.6721 9.10807 30.5887 8.92844 30.4708 10.5788" stroke="#383F58" stroke-width="0.67361" stroke-linecap="round" stroke-linejoin="round"/>
<path d="M16.0512 18.0911C14.9005 17.0582 14.0585 17.9115 13.0705 17.7487C12.3351 17.6252 11.7963 16.7383 12.1387 15.6661C12.5485 14.3862 13.7385 14.0101 14.4065 14.201C15.0745 14.3918 15.1082 15.5258 16.607 15.0542" stroke="#383F58" stroke-width="0.67361" stroke-linecap="round" stroke-linejoin="round"/>
<path d="M28.1185 28.0312C28.1747 29.2381 29.5443 29.2662 29.9092 30.1587C30.1899 30.8492 29.7127 31.8315 28.663 32.2469C27.4112 32.7465 26.1033 32.3985 25.9181 31.6856C25.7441 31.012 26.3896 30.1475 25.4971 28.8845" stroke="#383F58" stroke-width="0.67361" stroke-linecap="round" stroke-linejoin="round"/>
<path d="M39.9879 31.0738V29.4518H40.5927C41.6374 29.4518 42.4254 29.0853 42.9569 28.3522C43.5067 27.6191 43.7817 26.5836 43.7817 25.2458V23.7063C43.7817 22.1118 44.0107 21.0397 44.4689 20.4899C44.9454 19.94 45.7152 19.6285 46.7781 19.5552V19.4452C45.7518 19.3719 44.9912 19.042 44.4964 18.4555C44.0199 17.8691 43.7817 16.8153 43.7817 15.2941V13.7546C43.7817 12.4167 43.5067 11.3812 42.9569 10.6482C42.4254 9.91507 41.6374 9.54853 40.5927 9.54853H39.9879V7.92657H40.5927C42.1689 7.92657 43.4243 8.47639 44.359 9.57602C45.2936 10.6573 45.761 12.2243 45.761 14.2769V15.6515C45.761 16.5678 45.9534 17.3101 46.3383 17.8782C46.7232 18.428 47.2272 18.703 47.8503 18.703H48.2901V20.2699H47.8503C47.2272 20.2699 46.7232 20.554 46.3383 21.1221C45.9534 21.6903 45.761 22.4234 45.761 23.3214V24.7234C45.761 26.7577 45.2936 28.3156 44.359 29.3969C43.4426 30.4782 42.1872 31.0371 40.5927 31.0738H39.9879Z" fill="#383F58"/>
<path d="M8.99255 7.94182L8.99255 9.56378L8.38775 9.56378C7.3431 9.56378 6.55503 9.93032 6.02354 10.6634C5.47373 11.3965 5.19882 12.432 5.19882 13.7699L5.19882 15.3094C5.19882 16.9038 4.96973 17.976 4.51155 18.5258C4.03504 19.0756 3.2653 19.3871 2.20233 19.4605L2.20233 19.5704C3.22865 19.6437 3.98923 19.9736 4.48406 20.5601C4.96057 21.1466 5.19882 22.2004 5.19882 23.7215L5.19882 25.261C5.19882 26.5989 5.47373 27.6344 6.02354 28.3675C6.55503 29.1006 7.3431 29.4671 8.38775 29.4671L8.99254 29.4671L8.99254 31.0891L8.38775 31.0891C6.81161 31.0891 5.5562 30.5392 4.62151 29.4396C3.68683 28.3583 3.21948 26.7913 3.21948 24.7387L3.21948 23.3641C3.21948 22.4478 3.02705 21.7055 2.64218 21.1374C2.25731 20.5876 1.75331 20.3127 1.13019 20.3127L0.690333 20.3127L0.690333 18.7457L1.13019 18.7457C1.75331 18.7457 2.25731 18.4616 2.64218 17.8935C3.02705 17.3253 3.21948 16.5923 3.21948 15.6942L3.21948 14.2922C3.21948 12.2579 3.68683 10.7001 4.62151 9.61876C5.53787 8.53746 6.79328 7.97848 8.38775 7.94182L8.99255 7.94182Z" fill="#383F58"/>
<path d="M39.722 16.7977C39.5761 16.1466 39.1719 15.5628 38.605 15.2091C38.1727 14.9341 37.69 14.833 37.2914 14.9228C36.7806 15.0407 36.4887 15.3663 36.2249 15.6526C35.9667 15.9333 35.759 16.169 35.3604 16.2308C34.6194 13.7384 33.0477 11.5772 30.8921 10.0953C31.0381 9.5957 31.3244 9.43291 31.6499 9.24206C31.8969 9.10172 32.1495 8.95577 32.3067 8.66949C32.4976 8.33268 32.52 7.91168 32.3685 7.48506C32.1383 6.82829 31.5545 6.27256 30.7686 5.95821C29.9603 5.63263 29.0958 5.58772 28.5176 5.83471C28.1921 5.97505 27.9619 6.2052 27.844 6.49709C27.67 6.94055 27.7318 7.40085 27.7879 7.8387C27.8272 8.11376 27.8609 8.37198 27.8328 8.60774C26.7438 8.27093 25.6099 8.09692 24.4535 8.09692C23.3477 8.09692 22.2587 8.25409 21.209 8.56845C20.6589 8.20357 20.715 7.90045 20.788 7.48506C20.8385 7.20438 20.8946 6.89003 20.7374 6.57568C20.3389 5.77296 19.1039 5.32389 17.7343 5.95259C17.0775 6.25572 16.5779 6.7497 16.3758 7.31104C16.2299 7.70398 16.2411 8.11376 16.4039 8.46179C16.6172 8.91648 16.9877 9.16908 17.3189 9.39362C17.7006 9.65184 17.9195 9.82024 17.9644 10.1346C16.5611 11.1113 15.3879 12.4024 14.5515 13.89C14.5346 13.8844 14.5178 13.8787 14.5009 13.8731C14.0575 13.744 13.5018 13.8226 13.019 14.0808C12.6204 14.2941 12.0872 14.7208 11.8177 15.5572C11.6156 16.1971 11.6718 16.8482 11.9749 17.3478C12.2163 17.7408 12.5924 18.0046 13.0134 18.0776C13.0583 18.0832 13.1032 18.0888 13.1537 18.0944C13.1032 18.521 13.0807 18.9701 13.0807 19.4697C13.0807 21.1537 13.44 22.7704 14.1473 24.2804C13.8329 24.432 13.4905 24.4264 13.1257 24.4207C12.7552 24.4151 12.3735 24.4095 12.0367 24.5948C11.6493 24.8081 11.3518 25.2459 11.2395 25.7623C11.0936 26.4303 11.2564 27.1376 11.7055 27.7439C12.177 28.3894 12.8899 28.8497 13.5579 28.9508C13.9621 29.0125 14.3213 28.9339 14.5964 28.7318C15.0342 28.4063 15.2307 27.9123 15.3991 27.4801C15.5282 27.1601 15.6236 26.9299 15.7527 26.8064C17.9195 29.3774 21.0743 30.8481 24.4479 30.8481C24.8352 30.8481 25.2226 30.8313 25.6043 30.792C25.5987 30.8313 25.5931 30.8649 25.5874 30.9042C25.5481 31.2018 25.5089 31.488 25.5818 31.7743C25.666 32.1055 25.9074 32.3806 26.2779 32.5714C26.6147 32.7398 27.0189 32.8296 27.4455 32.8296C27.8777 32.8296 28.338 32.7454 28.7703 32.5714C29.4102 32.3132 29.9154 31.8473 30.1568 31.2803C30.3364 30.8593 30.3532 30.4159 30.2017 30.0398C30.1062 29.8096 29.9659 29.63 29.8087 29.4784C31.5096 28.5634 32.9522 27.2331 34.002 25.6108C35.1808 23.7977 35.8039 21.6982 35.8151 19.5315C36.4494 19.2339 36.9602 19.3406 37.4542 19.4416C37.7349 19.4978 38.0043 19.5539 38.2738 19.5315C38.6835 19.4922 39.0821 19.2508 39.3628 18.8691C39.7726 18.3246 39.896 17.5724 39.722 16.7977Z" fill="#4863F4"/>
<path d="M25.3389 15.243C25.019 14.6087 25.0246 13.9238 25.4119 13.4747C25.9901 12.8011 27.197 12.8966 28.112 13.6824C29.027 14.4683 29.302 15.6527 28.7294 16.3207C28.359 16.753 27.719 16.8709 27.0735 16.6856" stroke="#383F58" stroke-width="0.67361" stroke-linecap="round" stroke-linejoin="round"/>
<path d="M22.152 20.5605C23.2129 20.5605 24.0774 21.4194 24.0774 22.4859C24.0774 23.5525 23.2185 24.4114 22.152 24.4114C21.091 24.4114 20.2266 23.5525 20.2266 22.4859C20.2266 22.1155 20.3332 21.7674 20.5185 21.4699" stroke="#383F58" stroke-width="0.67361" stroke-linecap="round" stroke-linejoin="round"/>
<path d="M29.3762 20.373C30.2743 20.8277 31.1781 20.5751 31.6496 21.0803C32.2053 21.6754 32.2334 22.523 31.47 23.365C30.7066 24.207 29.6456 24.3979 28.9945 23.9039C28.2086 23.3089 28.4836 22.377 28.4836 22.377" stroke="#383F58" stroke-width="0.67361" stroke-linecap="round" stroke-linejoin="round"/>
<path d="M27.7305 9.48417C28.6623 8.67584 27.8034 7.51386 28.1571 6.61572C28.4321 5.91965 29.5997 5.84668 30.6438 6.26768C31.8956 6.76728 32.3728 7.86189 32.0135 8.50182C31.6711 9.10807 30.5877 8.92844 30.4698 10.5788" stroke="#383F58" stroke-width="0.67361" stroke-linecap="round" stroke-linejoin="round"/>
<path d="M16.0503 18.0911C14.8995 17.0582 14.0575 17.9115 13.0695 17.7487C12.3342 17.6252 11.7953 16.7383 12.1377 15.6661C12.5475 14.3862 13.7375 14.0101 14.4055 14.201C15.0735 14.3918 15.1072 15.5258 16.606 15.0542" stroke="#383F58" stroke-width="0.67361" stroke-linecap="round" stroke-linejoin="round"/>
<path d="M28.1176 28.0312C28.1737 29.2381 29.5434 29.2662 29.9082 30.1587C30.1889 30.8492 29.7118 31.8315 28.6621 32.2469C27.4103 32.7465 26.1023 32.3985 25.9171 31.6856C25.7431 31.012 26.3886 30.1475 25.4961 28.8845" stroke="#383F58" stroke-width="0.67361" stroke-linecap="round" stroke-linejoin="round"/>
<path d="M56.6893 24.9343C56.5884 24.9343 56.4988 24.9007 56.4204 24.8335C56.3531 24.7662 56.3251 24.6822 56.3363 24.5814L56.6053 22.7493H55.1766C55.0645 22.7493 54.9693 22.7157 54.8908 22.6484C54.8236 22.57 54.79 22.4747 54.79 22.3627V21.4214C54.79 21.3094 54.8236 21.2197 54.8908 21.1525C54.9693 21.0741 55.0645 21.0348 55.1766 21.0348H56.8574L57.244 18.48H55.6136C55.5015 18.48 55.4063 18.4464 55.3278 18.3792C55.2606 18.3007 55.227 18.2055 55.227 18.0934V17.1522C55.227 17.0401 55.2606 16.9505 55.3278 16.8832C55.4063 16.8048 55.5015 16.7656 55.6136 16.7656H57.4961L57.7818 14.9335C57.8042 14.8327 57.8491 14.7486 57.9163 14.6814C57.9835 14.6142 58.0676 14.5805 58.1684 14.5805H59.1433C59.2441 14.5805 59.3282 14.6142 59.3954 14.6814C59.4626 14.7486 59.4906 14.8327 59.4794 14.9335L59.2105 16.7656H61.3115L61.5973 14.9335C61.6197 14.8327 61.6645 14.7486 61.7317 14.6814C61.799 14.6142 61.883 14.5805 61.9838 14.5805H62.9587C63.0596 14.5805 63.1436 14.6142 63.2108 14.6814C63.2781 14.7486 63.3061 14.8327 63.2949 14.9335L63.026 16.7656H64.4378C64.5499 16.7656 64.6395 16.8048 64.7068 16.8832C64.7852 16.9505 64.8244 17.0401 64.8244 17.1522V18.0934C64.8244 18.2055 64.7852 18.3007 64.7068 18.3792C64.6395 18.4464 64.5499 18.48 64.4378 18.48H62.7738L62.4041 21.0348H64.0008C64.1129 21.0348 64.2025 21.0741 64.2698 21.1525C64.3482 21.2197 64.3874 21.3094 64.3874 21.4214V22.3627C64.3874 22.4747 64.3482 22.57 64.2698 22.6484C64.2025 22.7157 64.1129 22.7493 64.0008 22.7493H62.1351L61.8662 24.5814C61.8438 24.6822 61.799 24.7662 61.7317 24.8335C61.6645 24.9007 61.5805 24.9343 61.4796 24.9343H60.5047C60.4039 24.9343 60.3142 24.9007 60.2358 24.8335C60.1686 24.7662 60.1406 24.6822 60.1518 24.5814L60.4207 22.7493H58.3197L58.0508 24.5814C58.0283 24.6822 57.9835 24.7662 57.9163 24.8335C57.8491 24.9007 57.765 24.9343 57.6642 24.9343H56.6893ZM60.6728 21.0348L61.0594 18.48H58.9584L58.5886 21.0348H60.6728ZM71.4704 25.7579C69.9241 25.7579 68.7251 25.3601 67.8735 24.5645C67.0331 23.769 66.5849 22.6484 66.5289 21.2029C66.5177 20.9004 66.5121 20.4073 66.5121 19.7238C66.5121 19.0291 66.5177 18.5248 66.5289 18.2111C66.5849 16.7768 67.0387 15.6619 67.8903 14.8663C68.7531 14.0595 69.9465 13.6561 71.4704 13.6561C72.4677 13.6561 73.3361 13.8298 74.0757 14.1771C74.8153 14.5133 75.3867 14.9783 75.7901 15.5722C76.1935 16.1549 76.4064 16.816 76.4288 17.5556V17.5892C76.4288 17.6788 76.3896 17.7573 76.3112 17.8245C76.244 17.8805 76.1655 17.9085 76.0759 17.9085H74.4791C74.3446 17.9085 74.2438 17.8805 74.1766 17.8245C74.1093 17.7685 74.0533 17.662 74.0085 17.5051C73.8292 16.7992 73.5322 16.3062 73.1176 16.026C72.703 15.7347 72.1484 15.589 71.4536 15.589C69.8401 15.589 68.9997 16.4911 68.9324 18.2951C68.9212 18.5977 68.9156 19.0627 68.9156 19.6902C68.9156 20.3177 68.9212 20.7939 68.9324 21.1189C68.9997 22.923 69.8401 23.825 71.4536 23.825C72.1484 23.825 72.703 23.6793 73.1176 23.388C73.5434 23.0966 73.8404 22.6036 74.0085 21.9089C74.0421 21.752 74.0925 21.6455 74.1597 21.5895C74.2382 21.5335 74.3446 21.5055 74.4791 21.5055H76.0759C76.1767 21.5055 76.2608 21.5391 76.328 21.6063C76.4064 21.6736 76.44 21.7576 76.4288 21.8584C76.4064 22.598 76.1935 23.2647 75.7901 23.8586C75.3867 24.4413 74.8153 24.9063 74.0757 25.2537C73.3361 25.5898 72.4677 25.7579 71.4704 25.7579ZM82.0863 25.7579C80.7753 25.7579 79.7612 25.4218 79.0441 24.7494C78.3269 24.0659 77.9403 23.1359 77.8843 21.9593L77.8675 21.2197L77.8843 20.4802C77.9403 19.3148 78.3325 18.3904 79.0609 17.7068C79.7892 17.0233 80.7977 16.6815 82.0863 16.6815C83.375 16.6815 84.3834 17.0233 85.1118 17.7068C85.8402 18.3904 86.2323 19.3148 86.2884 20.4802C86.2996 20.6146 86.3052 20.8612 86.3052 21.2197C86.3052 21.5783 86.2996 21.8248 86.2884 21.9593C86.2323 23.1359 85.8458 24.0659 85.1286 24.7494C84.4115 25.4218 83.3974 25.7579 82.0863 25.7579ZM82.0863 24.0939C82.6802 24.0939 83.1396 23.909 83.4646 23.5393C83.7896 23.1583 83.9688 22.6036 84.0025 21.8753C84.0137 21.7632 84.0193 21.5447 84.0193 21.2197C84.0193 20.8948 84.0137 20.6763 84.0025 20.5642C83.9688 19.8359 83.7896 19.2868 83.4646 18.917C83.1396 18.536 82.6802 18.3456 82.0863 18.3456C81.4925 18.3456 81.033 18.536 80.7081 18.917C80.3831 19.2868 80.2038 19.8359 80.1702 20.5642L80.1534 21.2197L80.1702 21.8753C80.2038 22.6036 80.3831 23.1583 80.7081 23.5393C81.033 23.909 81.4925 24.0939 82.0863 24.0939ZM90.9483 25.5898C90.7802 25.5898 90.6513 25.5562 90.5617 25.489C90.4721 25.4106 90.3992 25.3041 90.3432 25.1696L87.2001 17.3707L87.1665 17.2194C87.1665 17.1186 87.2001 17.0345 87.2673 16.9673C87.3457 16.8888 87.4354 16.8496 87.5362 16.8496H88.8977C89.1106 16.8496 89.2563 16.9561 89.3347 17.169L91.5702 23.0686L93.8057 17.169C93.8393 17.0905 93.8897 17.0177 93.9569 16.9505C94.0354 16.8832 94.1306 16.8496 94.2427 16.8496H95.6209C95.7106 16.8496 95.789 16.8888 95.8563 16.9673C95.9347 17.0345 95.9739 17.1186 95.9739 17.2194C95.9739 17.2866 95.9683 17.3371 95.9571 17.3707L92.7972 25.1696C92.7411 25.3041 92.6683 25.4106 92.5787 25.489C92.489 25.5562 92.3602 25.5898 92.1921 25.5898H90.9483ZM97.8433 15.4041C97.7312 15.4041 97.636 15.3649 97.5575 15.2865C97.4791 15.208 97.4399 15.1128 97.4399 15.0007V13.7906C97.4399 13.6785 97.4791 13.5833 97.5575 13.5048C97.636 13.4264 97.7312 13.3872 97.8433 13.3872H99.3728C99.4849 13.3872 99.5801 13.4264 99.6586 13.5048C99.7482 13.5833 99.793 13.6785 99.793 13.7906V15.0007C99.793 15.1128 99.7538 15.208 99.6754 15.2865C99.5969 15.3649 99.4961 15.4041 99.3728 15.4041H97.8433ZM97.9105 25.5898C97.7985 25.5898 97.7032 25.5506 97.6248 25.4722C97.5463 25.3937 97.5071 25.2985 97.5071 25.1864V17.253C97.5071 17.141 97.5463 17.0457 97.6248 16.9673C97.7032 16.8888 97.7985 16.8496 97.9105 16.8496H99.3056C99.4288 16.8496 99.5241 16.8888 99.5913 16.9673C99.6698 17.0345 99.709 17.1298 99.709 17.253V25.1864C99.709 25.2985 99.6698 25.3937 99.5913 25.4722C99.5241 25.5506 99.4288 25.5898 99.3056 25.5898H97.9105ZM105.183 25.7579C104.051 25.7579 103.183 25.3937 102.578 24.6654C101.973 23.937 101.648 22.9678 101.603 21.7576L101.586 21.2029L101.603 20.6651C101.636 19.4885 101.956 18.5304 102.561 17.7909C103.177 17.0513 104.051 16.6815 105.183 16.6815C106.27 16.6815 107.133 17.0513 107.771 17.7909V14.0595C107.771 13.9362 107.811 13.841 107.889 13.7737C107.967 13.6953 108.063 13.6561 108.175 13.6561H109.603C109.727 13.6561 109.822 13.6953 109.889 13.7737C109.968 13.841 110.007 13.9362 110.007 14.0595V25.1864C110.007 25.2985 109.968 25.3937 109.889 25.4722C109.822 25.5506 109.727 25.5898 109.603 25.5898H108.276C108.164 25.5898 108.068 25.5506 107.99 25.4722C107.911 25.3937 107.872 25.2985 107.872 25.1864V24.5645C107.233 25.3601 106.337 25.7579 105.183 25.7579ZM105.805 23.9595C106.455 23.9595 106.937 23.7522 107.25 23.3376C107.564 22.923 107.738 22.4131 107.771 21.808C107.783 21.6736 107.788 21.4551 107.788 21.1525C107.788 20.8612 107.783 20.6483 107.771 20.5138C107.749 19.9535 107.57 19.4773 107.233 19.0851C106.909 18.6817 106.432 18.48 105.805 18.48C104.595 18.48 103.95 19.2252 103.872 20.7155L103.855 21.2197L103.872 21.724C103.95 23.2143 104.595 23.9595 105.805 23.9595Z" fill="#4863F4"/>
<path d="M117.138 25.7579C115.625 25.7579 114.449 25.3713 113.608 24.5982C112.768 23.825 112.348 22.654 112.348 21.0853V14.2444C112.348 14.1211 112.382 14.0203 112.449 13.9418C112.527 13.8634 112.628 13.8242 112.751 13.8242H114.281C114.404 13.8242 114.499 13.8634 114.567 13.9418C114.645 14.0203 114.684 14.1211 114.684 14.2444V21.0853C114.684 21.9817 114.897 22.6596 115.323 23.1191C115.749 23.5673 116.354 23.7914 117.138 23.7914C117.923 23.7914 118.522 23.5673 118.937 23.1191C119.362 22.6596 119.575 21.9817 119.575 21.0853V14.2444C119.575 14.1211 119.615 14.0203 119.693 13.9418C119.771 13.8634 119.872 13.8242 119.996 13.8242H121.508C121.632 13.8242 121.727 13.8634 121.794 13.9418C121.872 14.0203 121.912 14.1211 121.912 14.2444V21.0853C121.912 22.654 121.491 23.825 120.651 24.5982C119.822 25.3713 118.651 25.7579 117.138 25.7579ZM124.196 25.5898C124.084 25.5898 123.988 25.5506 123.91 25.4722C123.832 25.3937 123.792 25.2985 123.792 25.1864V24.2284C123.792 24.0715 123.871 23.8922 124.028 23.6905L128.331 18.5977H124.33C124.218 18.5977 124.123 18.5585 124.044 18.48C123.966 18.4016 123.927 18.3063 123.927 18.1943V17.253C123.927 17.141 123.966 17.0457 124.044 16.9673C124.123 16.8888 124.218 16.8496 124.33 16.8496H130.7C130.824 16.8496 130.919 16.8888 130.986 16.9673C131.065 17.0345 131.104 17.1298 131.104 17.253V18.2783C131.104 18.4352 131.025 18.6033 130.869 18.7826L126.667 23.8418H131.053C131.177 23.8418 131.272 23.881 131.339 23.9595C131.418 24.0267 131.457 24.1219 131.457 24.2452V25.1864C131.457 25.2985 131.418 25.3937 131.339 25.4722C131.272 25.5506 131.177 25.5898 131.053 25.5898H124.196Z" fill="#383F58"/>
</svg>
